<svg xmlns="http://www.w3.org/2000/svg" xmlns:xlink="http://www.w3.org/1999/xlink" width="470.5" height="341.5" viewBox="0 0 470.5 341.5"><defs><style>.a,.d,.n{fill:none;}.a{stroke:#fff;stroke-dasharray:5;}.a,.d{stroke-miterlimit:10;}.b,.j{fill:#fff;}.b{opacity:0.1;}.c{fill:url(#a);}.d{stroke:#707070;stroke-width:6px;}.e{fill:url(#b);}.f{fill:url(#c);}.g{fill:#0e0d0d;opacity:0.078;}.h{fill:url(#d);}.i{fill:rgba(216,216,216,0.2);}.k{fill:#bdcbef;}.l{fill:#96a1bb;}.m{stroke:none;}</style><linearGradient id="a" x1="-0.387" y1="-0.416" x2="1.148" y2="1.116" gradientUnits="objectBoundingBox"><stop offset="0" stop-color="#7300c0"/><stop offset="1" stop-color="#3f008c"/></linearGradient><linearGradient id="b" x1="1" y1="1" x2="0" gradientUnits="objectBoundingBox"><stop offset="0" stop-color="#1270e3"/><stop offset="1" stop-color="#59c2ff"/></linearGradient><linearGradient id="c" x1="0.5" x2="0.5" y2="1" gradientUnits="objectBoundingBox"><stop offset="0" stop-color="#fff3b6"/><stop offset="1" stop-color="#ffe27f"/></linearGradient><linearGradient id="d" x1="1.823" y1="1.547" x2="-0.127" gradientUnits="objectBoundingBox"><stop offset="0" stop-color="#f595ba"/><stop offset="1" stop-color="#fc7d7b"/></linearGradient></defs><g transform="translate(0 0.5)"><rect class="a" width="115" height="112" rx="8" transform="translate(9)"/><circle class="a" cx="38" cy="38" r="38" transform="translate(394 246)"/><rect class="b" width="420" height="280" transform="translate(34 25)"/><rect class="c" width="420" height="280" transform="translate(24 15)"/><g class="d" transform="translate(81 295)"><circle class="m" cx="16.5" cy="16.5" r="16.5"/><circle class="n" cx="16.5" cy="16.5" r="13.5"/></g><path class="e" d="M0,0H44a0,0,0,0,1,0,0V45A14,14,0,0,1,30,59H14A14,14,0,0,1,0,45V0A0,0,0,0,1,0,0Z" transform="translate(54 282)"/><rect class="f" width="188" height="60" rx="10" transform="translate(122 78)"/><rect class="g" width="144" height="3" transform="translate(144 94)"/><rect class="g" width="144" height="3" transform="translate(144 107)"/><rect class="g" width="84" height="3" transform="translate(144 120)"/><rect class="h" width="188" height="60" rx="10" transform="translate(244 161)"/><rect class="g" width="144" height="3" transform="translate(268 176)"/><rect class="g" width="144" height="3" transform="translate(268 189)"/><rect class="g" width="84" height="3" transform="translate(268 202)"/><path class="i" d="M13.1,47S-3.2,30.071.782,20.77,21,0,21,0s-3.075,12.572-9.159,20.77S13.1,47,13.1,47Z" transform="translate(60 232)"/><path class="i" d="M4.21,28S-1.623,17.7.626,12A69.9,69.9,0,0,1,7.286,0S9.249,8.972,5.815,14,4.21,28,4.21,28Z" transform="translate(73 250)"/><g transform="translate(0 138)"><path class="j" d="M17.064,21l41-21-34,25,20,13,14-38L0,12Z" transform="translate(0 0.032)"/><path class="k" d="M7,25,3.063,38,0,21,41,0Z" transform="translate(17.064 0.032)"/><path class="l" d="M4,0,0,13,11.848,5.1Z" transform="translate(20.064 25.032)"/></g></g></svg>